# Blender v2.92.0 OBJ File: ''
# www.blender.org
mtllib corridor_wall.mtl
o corridor_wall
v -0.050000 0.000000 -0.500000
v -0.050000 0.100000 0.500000
v -0.050000 0.100000 -0.500000
v -0.050000 -0.000000 0.500000
v 0.050000 0.100000 0.500000
v 0.050000 0.000000 -0.500000
v 0.050000 0.100000 -0.500000
v 0.050000 -0.000000 0.500000
v -0.050000 0.200000 -0.500000
v 0.050000 0.200000 -0.500000
v 0.050000 0.800000 0.500000
v 0.050000 0.400000 -0.500000
v 0.050000 0.800000 -0.500000
v 0.050000 0.400000 0.500000
v -0.050000 0.200000 0.500000
v -0.050000 0.400000 0.500000
v -0.050000 0.800000 -0.500000
v -0.050000 0.400000 -0.500000
v -0.050000 0.800000 0.500000
v 0.050000 0.200000 0.500000
vt -19.685040 -0.000000
vt 19.685040 3.937008
vt -19.685040 3.937008
vt 19.685040 -0.000000
vt -19.685040 3.937008
vt 19.685040 0.000000
vt 19.685040 3.937008
vt -19.685040 0.000000
vt -15.748030 3.937008
vt -19.685040 -0.000000
vt -15.748030 -0.000000
vt -19.685040 3.937008
vt -15.748030 19.685040
vt -19.685040 -19.685040
vt -15.748030 -19.685040
vt -19.685040 19.685040
vt 19.685040 3.937008
vt 15.748030 0.000000
vt 19.685040 0.000000
vt 15.748030 3.937008
vt 19.685040 7.874016
vt 15.748030 7.874016
vt -19.685040 31.496059
vt 19.685040 15.748030
vt 19.685040 31.496059
vt -19.685040 15.748030
vt -19.685040 7.874016
vt 19.685040 7.874016
vt 19.685040 15.748030
vt -19.685040 31.496059
vt -19.685040 15.748030
vt 19.685040 31.496059
vt -19.685040 7.874016
vt 19.685040 7.874016
vt 19.685040 -19.685040
vt 15.748030 19.685040
vt 15.748030 -19.685040
vt 19.685040 19.685040
vt 19.685040 31.496059
vt 15.748030 15.748030
vt 19.685040 15.748030
vt 15.748030 31.496059
vt -15.748030 31.496059
vt -19.685040 15.748030
vt -15.748030 15.748030
vt -19.685040 31.496059
vt -15.748030 7.874016
vt -19.685040 7.874016
vn -1.0000 0.0000 0.0000
vn 1.0000 0.0000 0.0000
vn 0.0000 -0.0000 1.0000
vn 0.0000 -1.0000 -0.0000
vn 0.0000 0.0000 -1.0000
vn 0.0000 1.0000 0.0000
usemtl metalDark
s 1
f 1/1/1 2/2/1 3/3/1
f 2/2/1 1/1/1 4/4/1
f 5/5/2 6/6/2 7/7/2
f 6/6/2 5/5/2 8/8/2
f 5/9/3 4/10/3 8/11/3
f 4/10/3 5/9/3 2/12/3
f 8/13/4 1/14/4 6/15/4
f 1/14/4 8/13/4 4/16/4
f 3/17/5 6/18/5 1/19/5
f 6/18/5 3/17/5 7/20/5
usemtl metal
f 9/21/5 7/20/5 3/17/5
f 7/20/5 9/21/5 10/22/5
f 11/23/2 12/24/2 13/25/2
f 12/24/2 11/23/2 14/26/2
f 2/2/1 9/27/1 3/3/1
f 9/27/1 2/2/1 15/28/1
f 16/29/1 17/30/1 18/31/1
f 17/30/1 16/29/1 19/32/1
f 20/33/2 7/7/2 10/34/2
f 7/7/2 20/33/2 5/5/2
f 17/35/6 11/36/6 13/37/6
f 11/36/6 17/35/6 19/38/6
f 17/39/5 12/40/5 18/41/5
f 12/40/5 17/39/5 13/42/5
f 11/43/3 16/44/3 14/45/3
f 16/44/3 11/43/3 19/46/3
f 20/47/3 2/12/3 5/9/3
f 2/12/3 20/47/3 15/48/3
usemtl metalRed
f 15/28/1 18/31/1 9/27/1
f 18/31/1 15/28/1 16/29/1
f 14/26/2 10/34/2 12/24/2
f 10/34/2 14/26/2 20/33/2
f 18/41/5 10/22/5 9/21/5
f 10/22/5 18/41/5 12/40/5
f 14/45/3 15/48/3 20/47/3
f 15/48/3 14/45/3 16/44/3
